<svg id="Layer_1" data-name="Layer 1" xmlns="http://www.w3.org/2000/svg" viewBox="0 0 32 32"><title>ic-medium-32px</title><rect width="32" height="32" style="fill:none"/><path d="M29.91,8.49h0L21.44,4.25l-.18-.06a.94.94,0,0,0-.23,0,1,1,0,0,0-.82.45l-4.86,7.9,6.1,9.92L29.94,8.62A.1.1,0,0,0,29.91,8.49Z"/><polygon points="12.67 10.7 12.67 19.69 20.67 23.69 12.67 10.7"/><path d="M21.87,24.29l6.58,3.29c.86.43,1.55.13,1.55-.67V11.08Z"/><path d="M11.28,8.5,3,4.38a1,1,0,0,0-.42-.11C2.25,4.27,2,4.54,2,5V22.82a1.54,1.54,0,0,0,.78,1.25L10,27.71a1.18,1.18,0,0,0,.52.14c.45,0,.77-.35.77-.94V8.58A.09.09,0,0,0,11.28,8.5Z"/></svg>