<svg id="Layer_1" xmlns="http://www.w3.org/2000/svg" viewBox="0 0 63.4 46.4"><style>.st0{fill:none;stroke:#230000;stroke-width:1.5;stroke-miterlimit:10;}</style><path class="st0" d="M13.1 25.9l3 3M47.3 28.9l3-3-15.7-15.6-2.9 2.9M22.6 22.3L16 28.9c-1.6 1.6-1.6 4.1 0 5.7l10 10c1.6 1.6 4.1 1.6 5.7 0"/><path class="st0" d="M34.696 10.297l9.263-9.263L62.413 19.49 53.15 28.75zM1.105 19.51L19.56 1.057l9.264 9.263-18.456 18.454zM30.5 43.3l1.2 1.2c1.6 1.6 4.1 1.6 5.7 0l10-10c1.6-1.6 1.6-4.1 0-5.7l-1.2-1.2c-1.6-1.6-4.1-1.6-5.7 0l-10 10c-1.6 1.6-1.6 4.1 0 5.7z"/><path class="st0" d="M19.5 19.5l1.7 1.7c2.6 2.6 6.7 2.6 9.2 0l1.9 1.9c2.6 2.6 6.7 2.6 9.2 0L30.5 12l-1.7-1.7-9.3 9.2z"/><ellipse transform="rotate(-45 43.844 10.294)" class="st0" cx="43.8" cy="10.3" rx="2.2" ry="2.2"/><ellipse transform="rotate(-45 19.555 10.294)" class="st0" cx="19.6" cy="10.3" rx="2.2" ry="2.2"/></svg>