<?xml version="1.0" encoding="UTF-8"?>
<svg width="32px" height="32px" viewBox="0 0 32 32" version="1.1" xmlns="http://www.w3.org/2000/svg" xmlns:xlink="http://www.w3.org/1999/xlink">
    <!-- Generator: Sketch 47 (45396) - http://www.bohemiancoding.com/sketch -->
    <title>Icons / ic-info-gray</title>
    <desc>Created with Sketch.</desc>
    <defs></defs>
    <g id="Symbols" stroke="none" stroke-width="1" fill="none" fill-rule="evenodd">
        <g id="Icons-/-ic-info-gray">
            <rect id="size" x="0" y="0" width="32" height="32"></rect>
            <g id="Icons-/-info" transform="translate(0.000000, 1.000000)">
                <path d="M16,1.00778222 L0.861589839,27.5 L31.1384102,27.5 L16,1.00778222 Z" id="Triangle" stroke-opacity="0.2" stroke="#000000"></path>
                <path d="M13.677,16.41 L15.679,16.41 L15.679,21.038 L13.417,21.038 L13.417,22 L19.189,22 L19.189,21.038 L16.771,21.038 L16.771,15.448 L13.677,15.448 L13.677,16.41 Z M15.25,13.706 C15.25,14.2 15.653,14.59 16.147,14.59 C16.654,14.59 17.044,14.2 17.044,13.706 C17.044,13.199 16.654,12.796 16.147,12.796 C15.653,12.796 15.25,13.199 15.25,13.706 Z" id="i" fill-opacity="0.4" fill="#323232"></path>
            </g>
        </g>
    </g>
</svg>