<svg id="Layer_1" data-name="Layer 1" xmlns="http://www.w3.org/2000/svg" viewBox="0 0 83.08 14"><title>logo-dschool-white</title><path d="M7.32,7.56a3.26,3.26,0,0,0-3-1.8A3.9,3.9,0,0,0,.46,9.87,3.91,3.91,0,0,0,4.3,14a3.33,3.33,0,0,0,3.06-1.85l0,1.7H8.64V0H7.32ZM4.57,12.83a2.71,2.71,0,0,1-2.73-3A2.69,2.69,0,0,1,4.57,6.95,2.74,2.74,0,0,1,7.38,9.87,2.76,2.76,0,0,1,4.57,12.83Zm8.45.1A1,1,0,0,1,12,14a1.06,1.06,0,0,1-1-1.05,1,1,0,0,1,1-1A1,1,0,0,1,13,12.93ZM63,4.8a4.66,4.66,0,0,0-1.91.41A4.17,4.17,0,0,1,63,2.11a4.17,4.17,0,0,1,1.92,3.11A4.68,4.68,0,0,0,63,4.8ZM49.34,4.36a2.59,2.59,0,0,0-2,4.21.7.7,0,0,1,1,.65.69.69,0,0,1,0,.09,2.59,2.59,0,1,0,1.07-5Zm0,4a1.39,1.39,0,1,1,1.39-1.4A1.39,1.39,0,0,1,49.34,8.34ZM64.92,5.82a4,4,0,0,0-3.91,0,4.18,4.18,0,0,0,2,3.36A4.19,4.19,0,0,0,64.92,5.82ZM63,7.71A.73.73,0,1,1,63.68,7,.73.73,0,0,1,63,7.71ZM53.08,6.24a.7.7,0,0,1,.31-.58A4.24,4.24,0,0,0,46.8,3.55a.69.69,0,0,1,0,.19.7.7,0,0,1-.7.7.69.69,0,0,1-.19,0,4.25,4.25,0,1,0,7.65,2.54s0,0,0,0A.7.7,0,0,1,53.08,6.24Zm-3.74,3.81A3.08,3.08,0,0,1,48,9.75a.7.7,0,0,1-1.08-.84,3.1,3.1,0,1,1,2.4,1.14Zm13.09-.61a4.12,4.12,0,0,1-1.67.39,4.17,4.17,0,0,1-2-.51,4.16,4.16,0,0,1,1.71-3.16A4.71,4.71,0,0,0,62.43,9.44ZM77.58,7a1,1,0,1,1-1-1A1,1,0,0,1,77.58,7ZM67.12,9.32a4.16,4.16,0,0,1-1.95.51,4.11,4.11,0,0,1-1.67-.39,4.71,4.71,0,0,0,1.91-3.28A4.17,4.17,0,0,1,67.12,9.32ZM76.57,0a7,7,0,0,0-6.81,5.47,7,7,0,0,0-13.62,0,7,7,0,0,0-13.56-.21,7,7,0,0,0-13.52,0,7,7,0,1,0,0,3.34,7,7,0,0,0,13.52,0,7,7,0,0,0,13.56-.21,7,7,0,0,0,13.62,0A7,7,0,1,0,76.57,0ZM25.85,7.82h-.08l-1,1.81a.88.88,0,1,1-1.49.83h-2a.88.88,0,1,1-1.48-.84L18.66,7.79a.87.87,0,0,1-.22,0,.88.88,0,1,1,0-1.77.88.88,0,0,1,.24,0l1-1.77a.88.88,0,1,1,1.49-.86h2.05a.88.88,0,1,1,1.49.86l1,1.75h.11a.88.88,0,1,1,0,1.77Zm12.37-4A.84.84,0,1,1,38.1,5,.85.85,0,0,1,38.22,3.78ZM35.46,2.55A1.1,1.1,0,1,1,35.3,4.1,1.1,1.1,0,0,1,35.46,2.55Zm.93,5.23a.53.53,0,1,1-.75-.08A.53.53,0,0,1,36.39,7.78ZM33,3.39a.79.79,0,1,1-.12,1.11A.79.79,0,0,1,33,3.39Zm.08,2.14a1.35,1.35,0,1,1-.21,1.9A1.35,1.35,0,0,1,33.06,5.53Zm-1.24-.47a.45.45,0,1,1-.07.63A.45.45,0,0,1,31.81,5.05Zm-.19,3.12a.45.45,0,1,1,.63.07A.45.45,0,0,1,31.63,8.18ZM33.8,10a.88.88,0,1,1,.13-1.24A.88.88,0,0,1,33.8,10Zm2.48,1.05a1,1,0,1,1,.16-1.45A1,1,0,0,1,36.28,11.1Zm-.17-4.74a.79.79,0,1,1,1.11.12A.79.79,0,0,1,36.11,6.36ZM38,10.74a.45.45,0,1,1,.07-.64A.45.45,0,0,1,38,10.74Zm1.65-1.65A1.51,1.51,0,1,1,39.88,7,1.51,1.51,0,0,1,39.65,9.09Zm.58-2.93a.45.45,0,1,1,.07-.63A.45.45,0,0,1,40.23,6.16Zm13.86.71s0,.06,0,.08a4.76,4.76,0,1,1-8.56-2.84.69.69,0,0,1-.1-.36.7.7,0,0,1,1.07-.6,4.75,4.75,0,0,1,7.39,2.4.7.7,0,0,1,.21,1.32ZM67.53,9.7A4.65,4.65,0,0,1,63,9.78h0A4.65,4.65,0,0,1,58.4,9.7l-.13-.07V9.48a4.71,4.71,0,0,1,2.21-4h0a4.71,4.71,0,0,1,2.35-3.93L63,1.5l.13.07a4.71,4.71,0,0,1,2.35,3.94h0a4.71,4.71,0,0,1,2.21,4v.15ZM80.27,7.8a.83.83,0,0,1-.79-.58H78a1.41,1.41,0,0,1-.21.54l1.09,1.09a.82.82,0,0,1,.38-.1.83.83,0,1,1-.83.83.82.82,0,0,1,.09-.37L77.39,8.12a1.4,1.4,0,0,1-.54.24V9.9a.83.83,0,1,1-.51,0V8.36a1.4,1.4,0,0,1-.56-.22l-1.1,1.1a.84.84,0,1,1-.35-.37l1.08-1.08a1.4,1.4,0,0,1-.23-.56H73.69a.83.83,0,1,1,0-.51h1.5a1.4,1.4,0,0,1,.24-.55L74.34,5.08a.82.82,0,0,1-.42.12.83.83,0,1,1,.76-.5l1.1,1.1a1.41,1.41,0,0,1,.55-.22V4.1a.83.83,0,1,1,.51,0V5.59a1.4,1.4,0,0,1,.53.23l1.09-1.09a.82.82,0,0,1-.09-.36.83.83,0,1,1,.83.83.82.82,0,0,1-.39-.1L77.74,6.18a1.4,1.4,0,0,1,.22.53h1.53a.83.83,0,1,1,.78,1.09Zm-55-1.54-1-1.7-.21,0A.88.88,0,0,1,23.24,4H21.19a.88.88,0,0,1-.84.63l-.2,0-1,1.79a.87.87,0,0,1,0,1.17l1.07,1.85.18,0a.88.88,0,0,1,.83.59h2.08a.89.89,0,0,1,.83-.59l.19,0,1-1.76a.87.87,0,0,1,0-1.35Zm-3,1.92A1.21,1.21,0,1,1,23.51,7,1.21,1.21,0,0,1,22.29,8.19Z" transform="translate(-0.46)" style="fill:#fff"/></svg>