<svg id="Layer_1" data-name="Layer 1" xmlns="http://www.w3.org/2000/svg" xmlns:xlink="http://www.w3.org/1999/xlink" viewBox="0 0 32 32"><defs><clipPath id="clip-path"><rect x="3" y="3" width="26" height="26" style="fill:none"/></clipPath></defs><title>ic-instagram-32px</title><rect width="32" height="32" style="fill:none"/><g style="clip-path:url(#clip-path)"><path d="M16,5.34c3.47,0,3.88,0,5.25.08a7.19,7.19,0,0,1,2.41.45,4.3,4.3,0,0,1,2.47,2.47,7.19,7.19,0,0,1,.45,2.41c.06,1.37.08,1.78.08,5.25s0,3.88-.08,5.25a7.19,7.19,0,0,1-.45,2.41,4.3,4.3,0,0,1-2.47,2.47,7.19,7.19,0,0,1-2.41.45c-1.37.06-1.78.08-5.25.08s-3.88,0-5.25-.08a7.19,7.19,0,0,1-2.41-.45,4.3,4.3,0,0,1-2.47-2.47,7.19,7.19,0,0,1-.45-2.41c-.06-1.37-.08-1.78-.08-5.25s0-3.88.08-5.25a7.19,7.19,0,0,1,.45-2.41A4.3,4.3,0,0,1,8.33,5.87a7.19,7.19,0,0,1,2.41-.45c1.37-.06,1.78-.08,5.25-.08M16,3c-3.53,0-4,0-5.36.08a9.54,9.54,0,0,0-3.16.6,6.65,6.65,0,0,0-3.8,3.8,9.54,9.54,0,0,0-.6,3.16C3,12,3,12.47,3,16s0,4,.08,5.36a9.54,9.54,0,0,0,.6,3.16,6.65,6.65,0,0,0,3.8,3.8,9.54,9.54,0,0,0,3.16.6C12,29,12.47,29,16,29s4,0,5.36-.08a9.54,9.54,0,0,0,3.16-.6,6.65,6.65,0,0,0,3.8-3.8,9.54,9.54,0,0,0,.6-3.16C29,20,29,19.53,29,16s0-4-.08-5.36a9.54,9.54,0,0,0-.6-3.16,6.65,6.65,0,0,0-3.8-3.8,9.54,9.54,0,0,0-3.16-.6C20,3,19.53,3,16,3"/><path d="M16,9.32A6.68,6.68,0,1,0,22.68,16,6.68,6.68,0,0,0,16,9.32m0,11A4.33,4.33,0,1,1,20.33,16,4.33,4.33,0,0,1,16,20.33"/><path d="M24.5,9.06A1.56,1.56,0,1,1,22.94,7.5,1.56,1.56,0,0,1,24.5,9.06"/></g></svg>