<svg id="Layer_1" data-name="Layer 1" xmlns="http://www.w3.org/2000/svg" viewBox="0 0 32 32"><title>ic-twitter-32px</title><rect width="32" height="32" style="fill:none"/><path d="M27.21,10.41c0,.24,0,.48,0,.73,0,7.43-5.66,16-16,16a15.93,15.93,0,0,1-8.63-2.53,11.36,11.36,0,0,0,8.33-2.33,5.63,5.63,0,0,1-5.26-3.91,5.65,5.65,0,0,0,1.06.1c.51,0,.17-.07.64-.2C4.78,17.76,2,15.49,2,12.76v-.07c0,.42,2.47.67,3.39.7A5.29,5.29,0,0,1,3.31,8.71a5.8,5.8,0,0,1,1-2.83A16.2,16.2,0,0,0,16,11.76a5.62,5.62,0,0,1-.09-1.28,5.66,5.66,0,0,1,9.77-3.85,11.29,11.29,0,0,0,3.58-1.37,5.64,5.64,0,0,1-2.47,3.11A11.28,11.28,0,0,0,30,7.49,11.43,11.43,0,0,1,27.21,10.41Z"/></svg>