<?xml version="1.0" encoding="UTF-8"?>
<svg width="28px" height="28px" viewBox="0 0 28 28" version="1.1" xmlns="http://www.w3.org/2000/svg" xmlns:xlink="http://www.w3.org/1999/xlink">
    <!-- Generator: Sketch 48.2 (47327) - http://www.bohemiancoding.com/sketch -->
    <title>Icons / ic-cc</title>
    <desc>Created with Sketch.</desc>
    <defs></defs>
    <g id="Resources-resource-Phase2-v01" stroke="none" stroke-width="1" fill="none" fill-rule="evenodd" transform="translate(-1057.000000, -1140.000000)">
        <g id="Sidebar" transform="translate(1056.000000, 848.000000)">
            <g id="Icons-/-ic-cc" transform="translate(0.000000, 291.000000)">
                <g transform="translate(1.000000, 1.000000)">
                    <rect id="Rectangle-path" x="0" y="0" width="28" height="28"></rect>
                    <path d="M14,0.5 C6.54415588,0.5 0.5,6.54415588 0.5,14 C0.5,21.4558441 6.54415588,27.5 14,27.5 C21.4558441,27.5 27.5,21.4558441 27.5,14 C27.5,6.54415588 21.4558441,0.5 14,0.5 Z" id="Shape" stroke="#FF4337" fill-rule="nonzero"></path>
                    <path d="M13,17.0799687 C11.2622457,18.4277867 8.704351,18.2784442 7.15900757,16.7389427 C5.61366414,15.1994412 5.61366414,12.8005588 7.15900757,11.2610573 C8.704351,9.72155583 11.2622457,9.5722133 13,10.9200313" id="Shape" stroke="#FF4337"></path>
                    <path d="M22,17.0799687 C20.2622457,18.4277867 17.704351,18.2784442 16.1590076,16.7389427 C14.6136641,15.1994412 14.6136641,12.8005588 16.1590076,11.2610573 C17.704351,9.72155583 20.2622457,9.5722133 22,10.9200313" id="Shape" stroke="#FF4337"></path>
                </g>
            </g>
        </g>
    </g>
</svg>