<?xml version="1.0" encoding="UTF-8"?>
<svg width="28px" height="30px" viewBox="0 0 28 30" version="1.1" xmlns="http://www.w3.org/2000/svg" xmlns:xlink="http://www.w3.org/1999/xlink">
    <!-- Generator: Sketch 46.2 (44496) - http://www.bohemiancoding.com/sketch -->
    <title>Icons / Feedback 30px Black</title>
    <desc>Created with Sketch.</desc>
    <defs></defs>
    <g id="RESOURCES-v2" stroke="none" stroke-width="1" fill="none" fill-rule="evenodd">
        <g id="Resources-resource-Phase2-v01" transform="translate(-769.000000, -2310.000000)">
            <g id="Feedback-bar-v2" transform="translate(96.000000, 2283.000000)">
                <g id="txt" transform="translate(414.000000, 27.000000)">
                    <g id="Icons-/-Feedback-30px-Black" transform="translate(258.000000, 0.000000)">
                        <g>
                            <rect id="Rectangle-path" x="0" y="0" width="30" height="30"></rect>
                            <rect id="Rectangle-path" fill="#323232" fill-rule="nonzero" x="6" y="10" width="18" height="1"></rect>
                            <rect id="Rectangle-path" fill="#323232" fill-rule="nonzero" x="6" y="13" width="16" height="1"></rect>
                            <rect id="Rectangle-path" fill="#323232" fill-rule="nonzero" x="6" y="16" width="14" height="1"></rect>
                            <path d="M9.5,0.5 L6.5,3.5 L26.5,3.5 L26.5,3.5 C27.6045695,3.5 28.5,4.3954305 28.5,5.5 L28.5,21.5 L28.5,21.5 C28.5,22.6045695 27.6045695,23.5 26.5,23.5 L12.5,23.5 L6.5,29.5 L6.5,23.5 L3.5,23.5 L3.5,23.5 C2.3954305,23.5 1.5,22.6045695 1.5,21.5 L1.5,5.5 L1.5,5.5 C1.5,4.3954305 2.3954305,3.5 3.5,3.5 L4,3.5" id="Shape" stroke="#323232" stroke-linejoin="round"></path>
                            <path d="M9.5,6.5 L6.5,3.5" id="Shape" stroke="#323232" stroke-linejoin="round"></path>
                        </g>
                    </g>
                </g>
            </g>
        </g>
    </g>
</svg>