<svg id="Layer_1" data-name="Layer 1" xmlns="http://www.w3.org/2000/svg" viewBox="0 0 30 30"><title>ic-heart-30px-solid</title><rect width="30" height="30" style="fill:none"/><path d="M26.82,5.15A7.43,7.43,0,0,0,15,6.9,7.43,7.43,0,1,0,3.19,15.65L14.3,26.76h0a1,1,0,0,0,1.41,0l11.11-11.1a7.43,7.43,0,0,0,0-10.51Z" style="fill:none;fill-rule:evenodd"/><path d="M26.82,5.2A7.43,7.43,0,0,0,15,7,7.43,7.43,0,1,0,3.19,15.7L14.3,26.81h0a1,1,0,0,0,1.41,0l11.11-11.1a7.43,7.43,0,0,0,0-10.51Z" style="fill:#303030"/></svg>