<?xml version="1.0" encoding="UTF-8"?>
<svg width="30px" height="22px" viewBox="0 0 30 22" version="1.1" xmlns="http://www.w3.org/2000/svg" xmlns:xlink="http://www.w3.org/1999/xlink">
    <!-- Generator: Sketch 48.2 (47327) - http://www.bohemiancoding.com/sketch -->
    <title>Icons / ic-program</title>
    <desc>Created with Sketch.</desc>
    <defs></defs>
    <g id="Resources-resource-Phase2-v01" stroke="none" stroke-width="1" fill="none" fill-rule="evenodd" transform="translate(-1056.000000, -1042.000000)">
        <g id="Sidebar" transform="translate(1056.000000, 848.000000)">
            <g id="Icons-/-ic-program" transform="translate(0.000000, 190.000000)">
                <g>
                    <g id="Layer_4">
                        <rect id="Rectangle-path" x="0" y="0" width="30" height="30"></rect>
                    </g>
                    <g id="Layer_2" transform="translate(0.000000, 5.000000)">
                        <path d="M22.46,16.82 C20.4687014,18.7621699 17.7915256,19.8402273 15.01,19.82 C9.76,19.82 7.56,16.82 7.56,16.82 L7.56,5.09 L22.46,5.09 L22.46,16.82 Z" id="Shape" stroke="#FF4337" fill="#FFFFFF" fill-rule="nonzero" stroke-linejoin="round"></path>
                        <polygon id="Shape" stroke="#FF4337" fill="#FFFFFF" fill-rule="nonzero" stroke-linejoin="round" points="15.01 15.77 0.5 7.96 15.01 0.16 29.5 7.96"></polygon>
                        <ellipse id="Oval" fill="#FF4337" fill-rule="nonzero" cx="15.01" cy="7.76" rx="1.21" ry="1"></ellipse>
                        <polyline id="Shape" stroke="#FF4337" stroke-linejoin="round" points="15.01 7.76 3.87 9.78 3.87 12.82"></polyline>
                        <path d="M2.77,15.94 C3.07749143,16.2257955 3.49188622,16.3675621 3.91,16.33 C4.32811378,16.3675621 4.74250857,16.2257955 5.05,15.94 L3.87,12.82 L2.77,15.94 Z" id="Shape" stroke="#FF4337" stroke-linejoin="round"></path>
                    </g>
                </g>
            </g>
        </g>
    </g>
</svg>